# xmcd CD database file
#
# Track frame offsets:
#	150
#	13560
#	28378
#	41045
#	54643
#	65345
#	77885
#	92215
#	110345
#	123620
#	139825
#	161048
#	176278
#	188438
#	202363
#	216593
#	229680
#	243480
#	261388
#	279000
#	298275
#
# Disc length: 4218 seconds
#
# Revision: 2
# Processed by: cddbd v1.5.1PL0 Copyright (c) Steve Scherf et al.
# Submitted via: CDex 1.51
#
DISCID=44107815
DTITLE=Various Artist - THE BEST OF velfarre Cyber TRANCE
DYEAR=2002
DGENRE=Trance
TTITLE0=At The End
TTITLE1=Dance Valley Theme 2001
TTITLE2=On The Move (DuMonde remix)
TTITLE3=O
TTITLE4=Be Cool
TTITLE5=The Vision (Vision 1 mix)
TTITLE6=It's My Turn
TTITLE7=M (Above and Beyond Vocal mix)
TTITLE8=Kernkraft 400 (Live-Chant version)
TTITLE9=Blood is Pumpin'
TTITLE10=Airwave (Rank 1 vs Dutch Force mix)
TTITLE11=We Are Alive
TTITLE12=Everytime You Need Me (Above and Beyond remix)
TTITLE13=Carte Blanche
TTITLE14=Concept Of Love
TTITLE15=Give Me Some More (Public Domain Debunk remix)
TTITLE16=Iguana (Megavoices mix)
TTITLE17=Infected
TTITLE18=Sweet Release (Yellowstone remix)
TTITLE19=The Beauty Of Silence (Pump mix)
TTITLE20=Look@The Heaven (The Remix Dedicate to Impulz X Dance Valley)
EXTD=YEAR: 2002
EXTT0=
EXTT1=
EXTT2=
EXTT3=
EXTT4=
EXTT5=
EXTT6=
EXTT7=
EXTT8=
EXTT9=
EXTT10=
EXTT11=
EXTT12=
EXTT13=
EXTT14=
EXTT15=
EXTT16=
EXTT17=
EXTT18=
EXTT19=
EXTT20=
PLAYORDER=
